<?xml version="1.0" standalone="no"?>
<!DOCTYPE svg PUBLIC "-//W3C//DTD SVG 20010904//EN"
 "http://www.w3.org/TR/2001/REC-SVG-20010904/DTD/svg10.dtd">
<svg version="1.0" xmlns="http://www.w3.org/2000/svg"
 width="300.000000pt" height="300.000000pt" viewBox="0 0 300.000000 300.000000"
 preserveAspectRatio="xMidYMid meet">
<metadata>
Created by potrace 1.10, written by Peter Selinger 2001-2011
</metadata>
<g transform="translate(0.000000,300.000000) scale(0.050000,-0.050000)"
fill="#ffc30d" stroke="none">
<path d="M4540 5332 c0 -206 23 -268 70 -192 7 11 43 20 80 20 97 0 96 11 -12
200 -130 226 -138 225 -138 -28z"/>
<path d="M5084 5304 l-146 -153 56 -18 c31 -10 76 -36 101 -59 55 -50 47 -63
110 166 67 243 56 249 -121 64z"/>
<path d="M4010 5123 c-12 -11 269 -303 292 -303 8 0 20 25 27 55 8 30 33 75
55 99 33 35 36 47 14 53 -306 88 -379 106 -388 96z"/>
<path d="M4658 5073 c-362 -130 -398 -616 -58 -788 353 -179 742 184 589 550
-84 202 -327 310 -531 238z m121 -178 c21 -20 24 -20 13 0 -8 14 -5 25 7 25
11 0 21 -9 21 -20 0 -11 10 -20 21 -20 12 0 16 9 9 20 -22 35 21 22 66 -21 24
-22 44 -30 44 -17 0 17 8 16 30 -2 16 -13 25 -33 19 -42 -7 -10 3 -24 20 -30
42 -16 39 -47 -4 -50 -33 -3 -33 -3 0 -12 25 -6 35 -29 35 -79 0 -47 -7 -65
-23 -55 -14 9 -18 5 -9 -8 20 -33 -46 -124 -90 -124 -21 0 -38 -9 -38 -19 0
-11 -19 -30 -42 -42 -35 -19 -40 -18 -27 4 14 22 11 22 -15 1 -26 -21 -33 -20
-43 5 -6 17 -23 30 -37 29 -21 -1 -21 -3 -1 -11 14 -6 20 -19 13 -30 -7 -11
-23 -3 -38 17 -15 20 -37 37 -48 39 -12 1 -31 3 -42 5 -11 1 -20 16 -20 33 0
17 -8 27 -17 21 -25 -16 -62 77 -43 108 21 35 2 83 -27 68 -13 -6 -7 2 12 17
19 16 28 35 20 43 -7 8 -5 20 6 28 10 8 29 32 41 54 12 22 27 36 32 30 5 -5
24 2 42 17 18 14 43 20 56 12 15 -10 19 -7 10 8 -19 31 13 29 47 -2z"/>
<path d="M5252 4903 c-6 -9 2 -34 18 -55 16 -21 29 -67 29 -103 1 -80 -16 -82
172 25 87 50 165 90 174 90 8 0 15 14 15 30 0 34 -388 46 -408 13z"/>
<path d="M600 4787 c0 -5 28 -90 63 -188 l62 -179 178 0 c204 0 197 -13 121
208 l-54 157 -185 5 c-102 3 -185 1 -185 -3z"/>
<path d="M1140 4781 c0 -7 26 -89 57 -182 l57 -169 183 -6 c101 -3 183 2 183
10 -1 9 -26 91 -58 184 l-56 168 -183 3 c-101 2 -183 -2 -183 -8z"/>
<path d="M1680 4774 c0 -9 25 -93 55 -186 l54 -168 188 0 c171 0 186 3 173 35
-8 19 -36 98 -61 175 -33 102 -55 141 -82 144 -131 15 -327 15 -327 0z"/>
<path d="M2213 4786 c-3 -3 22 -87 55 -186 l62 -180 187 0 c141 0 184 6 176
25 -6 14 -34 97 -63 185 l-52 160 -180 1 c-99 0 -182 -2 -185 -5z"/>
<path d="M4130 4567 c-66 -39 -140 -79 -165 -89 -99 -38 -41 -58 165 -58 116
0 210 3 210 8 0 4 -13 39 -30 78 -16 40 -24 86 -18 103 19 49 -31 36 -162 -42z"/>
<path d="M5274 4507 c-8 -7 -14 -30 -14 -51 0 -20 -18 -52 -40 -71 -68 -58
-47 -76 153 -132 243 -69 247 -63 65 119 -82 82 -156 143 -164 135z"/>
<path d="M826 4137 l64 -183 175 0 c96 0 176 7 177 14 1 7 -22 90 -52 183
l-54 169 -186 0 -187 0 63 -183z"/>
<path d="M1303 4296 c4 -15 30 -96 57 -181 l50 -154 186 -1 c180 0 186 1 173
42 -7 23 -33 101 -58 175 l-45 133 -184 6 c-144 4 -184 0 -179 -20z"/>
<path d="M1841 4305 c0 -8 26 -87 57 -175 l57 -160 184 -6 c143 -4 183 0 177
20 -4 14 -29 96 -56 181 l-48 155 -186 0 c-102 0 -186 -7 -185 -15z"/>
<path d="M2443 4140 l61 -180 185 0 185 0 -59 180 -60 180 -186 0 -186 0 60
-180z"/>
<path d="M4433 4265 c-4 -8 -27 -82 -49 -165 -23 -82 -47 -166 -55 -185 -27
-70 31 -32 169 108 138 141 155 177 84 177 -20 0 -52 18 -72 40 -38 42 -62 50
-77 25z"/>
<path d="M4971 4189 c-21 -16 -64 -29 -95 -29 -73 0 -72 -4 37 -196 118 -210
127 -207 127 46 0 218 -4 228 -69 179z"/>
<path d="M920 3847 c0 -5 27 -87 61 -183 l61 -174 179 0 c205 0 197 -13 123
200 l-56 160 -184 3 c-101 2 -184 -1 -184 -6z"/>
<path d="M1461 3832 c0 -12 25 -93 56 -180 l57 -158 183 -2 c117 -2 181 5 176
18 -4 11 -31 93 -61 182 l-53 161 -180 0 c-115 0 -179 -7 -178 -21z"/>
<path d="M2020 3847 c0 -8 24 -89 54 -181 l54 -166 188 0 c172 0 187 3 174 35
-8 19 -36 98 -61 175 l-45 140 -182 6 c-100 3 -182 -1 -182 -9z"/>
<path d="M2543 3836 c4 -15 30 -96 57 -181 l50 -154 186 -1 c180 0 186 1 173
42 -7 23 -33 101 -58 175 l-45 133 -184 6 c-144 4 -184 0 -179 -20z"/>
<path d="M2704 3376 c4 -14 29 -95 57 -179 l49 -153 180 -8 c222 -10 208 -28
136 179 l-60 175 -185 6 c-143 4 -183 0 -177 -20z"/>
<path d="M1100 3355 c0 -14 25 -96 55 -182 l56 -158 179 -1 c99 0 179 8 177
18 -1 10 -26 92 -56 183 l-54 165 -179 0 c-129 0 -178 -7 -178 -25z"/>
<path d="M1627 3355 c6 -14 34 -97 63 -185 l52 -160 174 2 c204 2 198 -8 129
203 l-53 165 -188 0 c-142 0 -185 -6 -177 -25z"/>
<path d="M2160 3375 c0 -3 26 -82 58 -175 l57 -170 178 -11 c97 -5 180 -8 185
-5 4 3 -18 86 -50 185 l-57 181 -186 0 c-102 0 -185 -2 -185 -5z"/>
<path d="M1960 2216 l0 -418 141 6 141 6 1 409 1 408 -142 3 -142 3 0 -417z"/>
<path d="M1899 1415 c0 -3 -2 -187 -5 -410 l-4 -405 215 0 215 0 0 410 0 410
-210 0 c-115 0 -210 -2 -211 -5z m241 -375 c0 -99 -8 -160 -21 -160 -12 0 -16
9 -9 20 7 11 2 20 -11 20 -18 0 -18 8 1 30 20 24 20 30 0 30 -19 0 -19 7 -2
28 18 22 18 31 -2 39 -20 8 -19 15 4 31 24 17 24 21 3 22 -23 0 -23 6 -3 30
19 22 19 30 1 30 -13 0 -18 9 -11 20 33 53 50 6 50 -140z"/>
</g>
</svg>
